<svg width="18" height="18" viewBox="0 0 18 18" fill="none" xmlns="http://www.w3.org/2000/svg">
<path d="M10.5 10.5H7.5C4.4625 10.5 2 12.9625 2 16C2 16.5522 2.44781 17 3 17H15C15.5522 17 16 16.5522 16 16C16 12.9625 13.5375 10.5 10.5 10.5ZM3.53094 15.5C3.77781 13.5281 5.4625 12 7.5 12H10.5C12.5363 12 14.2219 13.5297 14.4688 15.5H3.53094ZM9 9C11.2091 9 13 7.20906 13 5C13 2.79094 11.2091 1 9 1C6.79094 1 5 2.79094 5 5C5 7.20937 6.79063 9 9 9ZM9 2.5C10.3784 2.5 11.5 3.62156 11.5 5C11.5 6.37844 10.3784 7.5 9 7.5C7.62156 7.5 6.5 6.37813 6.5 5C6.5 3.62156 7.62187 2.5 9 2.5Z" fill="#464646"/>
</svg>
