<svg width="18" height="18" viewBox="0 0 18 18" fill="none" xmlns="http://www.w3.org/2000/svg">
<path d="M6.46875 6.46875C6.7625 6.17812 7.2375 6.17812 7.50313 6.46875L8.97188 7.94063L10.4688 6.46875C10.7625 6.17812 11.2375 6.17812 11.5031 6.46875C11.8219 6.7625 11.8219 7.2375 11.5031 7.50313L10.0594 8.97188L11.5031 10.4688C11.8219 10.7625 11.8219 11.2375 11.5031 11.5031C11.2375 11.8219 10.7625 11.8219 10.4688 11.5031L8.97188 10.0594L7.50313 11.5031C7.2375 11.8219 6.7625 11.8219 6.46875 11.5031C6.17812 11.2375 6.17812 10.7625 6.46875 10.4688L7.94063 8.97188L6.46875 7.50313C6.17812 7.2375 6.17812 6.7625 6.46875 6.46875ZM17 9C17 13.4187 13.4187 17 9 17C4.58125 17 1 13.4187 1 9C1 4.58125 4.58125 1 9 1C13.4187 1 17 4.58125 17 9ZM9 2.5C5.40937 2.5 2.5 5.40937 2.5 9C2.5 12.5906 5.40937 15.5 9 15.5C12.5906 15.5 15.5 12.5906 15.5 9C15.5 5.40937 12.5906 2.5 9 2.5Z" fill="#EF4444"/>
</svg>
