<svg width="18" height="18" viewBox="0 0 18 18" fill="none" xmlns="http://www.w3.org/2000/svg">
<path d="M17.25 4.42857C17.25 6.32143 15.7143 7.85714 13.8214 7.85714C12.7893 7.85714 11.8643 7.4 11.2357 6.67857L8.03214 8.28214C8.08214 8.51429 8.075 8.75357 8.075 8.96786C8.075 9.24643 8.08214 9.48571 8.03214 9.71786L11.2357 11.2893C11.8643 10.6 12.7893 10.1107 13.8214 10.1107C15.7143 10.1107 17.25 11.6464 17.25 13.5714C17.25 15.4643 15.7143 17 13.8214 17C11.8964 17 10.3929 15.4643 10.3929 13.5714C10.3929 13.325 10.4179 13.0857 10.4679 12.8536L7.26429 11.25C6.63571 11.9714 5.71071 12.4286 4.67857 12.4286C2.785 12.4286 1.25 10.8929 1.25 8.96786C1.25 7.075 2.785 5.53929 4.67857 5.53929C5.71071 5.53929 6.63571 6.02857 7.26429 6.71786L10.4679 5.14643C10.4179 4.91429 10.3929 4.675 10.3929 4.42857C10.3929 2.535 11.8964 1 13.8214 1C15.7143 1 17.25 2.535 17.25 4.42857ZM4.64643 10.7143C5.625 10.7143 6.36071 9.94643 6.36071 9C6.36071 8.05357 5.625 7.28571 4.64643 7.28571C3.73179 7.28571 2.93214 8.05357 2.93214 9C2.93214 9.94643 3.73179 10.7143 4.64643 10.7143ZM13.8214 2.71429C12.875 2.71429 12.1071 3.48214 12.1071 4.42857C12.1071 5.375 12.875 6.14286 13.8214 6.14286C14.7679 6.14286 15.5357 5.375 15.5357 4.42857C15.5357 3.48214 14.7679 2.71429 13.8214 2.71429ZM13.8214 15.2857C14.7679 15.2857 15.5357 14.5179 15.5357 13.5714C15.5357 12.625 14.7679 11.8571 13.8214 11.8571C12.875 11.8571 12.1071 12.625 12.1071 13.5714C12.1071 14.5179 12.875 15.2857 13.8214 15.2857Z" fill="#464646"/>
</svg>
