<svg width="18" height="18" viewBox="0 0 18 18" fill="none" xmlns="http://www.w3.org/2000/svg">
<path d="M1 2.71429C1 1.7675 1.7675 1 2.71429 1H6.14286C7.08929 1 7.85714 1.7675 7.85714 2.71429V6.14286C7.85714 7.08929 7.08929 7.85714 6.14286 7.85714H2.71429C1.7675 7.85714 1 7.08929 1 6.14286V2.71429ZM2.71429 6.14286H6.14286V2.71429H2.71429V6.14286ZM1 11.8571C1 10.9107 1.7675 10.1429 2.71429 10.1429H6.14286C7.08929 10.1429 7.85714 10.9107 7.85714 11.8571V15.2857C7.85714 16.2321 7.08929 17 6.14286 17H2.71429C1.7675 17 1 16.2321 1 15.2857V11.8571ZM2.71429 15.2857H6.14286V11.8571H2.71429V15.2857ZM15.2857 1C16.2321 1 17 1.7675 17 2.71429V6.14286C17 7.08929 16.2321 7.85714 15.2857 7.85714H11.8571C10.9107 7.85714 10.1429 7.08929 10.1429 6.14286V2.71429C10.1429 1.7675 10.9107 1 11.8571 1H15.2857ZM15.2857 2.71429H11.8571V6.14286H15.2857V2.71429ZM10.1429 11.8571C10.1429 10.9107 10.9107 10.1429 11.8571 10.1429H15.2857C16.2321 10.1429 17 10.9107 17 11.8571V15.2857C17 16.2321 16.2321 17 15.2857 17H11.8571C10.9107 17 10.1429 16.2321 10.1429 15.2857V11.8571ZM11.8571 15.2857H15.2857V11.8571H11.8571V15.2857Z" fill="#464646"/>
</svg>
