<svg width="16" height="16" viewBox="0 0 16 16" fill="none" xmlns="http://www.w3.org/2000/svg">
<g clip-path="url(#clip0_494_8262)">
<path d="M10.9135 4.88876H5.13597C4.76932 4.88876 4.46933 5.18875 4.46933 5.5554C4.46933 5.92205 4.76932 6.22204 5.13597 6.22204H10.9135C11.283 6.22204 11.5802 5.92483 11.5802 5.5554C11.5802 5.18597 11.283 4.88876 10.9135 4.88876ZM8.24696 7.55532H5.13597C4.76932 7.55532 4.46933 7.85531 4.46933 8.22196C4.46933 8.58861 4.76932 8.8886 5.13597 8.8886H8.24696C8.61639 8.8886 8.9136 8.59139 8.9136 8.22196C8.9136 7.85253 8.61639 7.55532 8.24696 7.55532ZM13.3329 0.888916H2.66662C1.6875 0.888916 0.888916 1.6875 0.888916 2.64163V10.6163C0.888916 11.5954 1.6875 12.369 2.66662 12.369H5.33319V14.6773C5.33319 14.9505 5.63929 15.1092 5.86428 14.9467L9.33358 12.344H13.3334C14.3126 12.344 15.1111 11.5454 15.1111 10.5913V2.64163C15.1106 1.6875 14.3356 0.888916 13.3329 0.888916ZM13.8023 10.6663C13.8023 10.9094 13.6009 11.1107 13.3579 11.1107H8.9136L6.69147 12.7773V11.1107H2.69162C2.44858 11.1107 2.2472 10.9094 2.2472 10.6663V2.66662C2.2472 2.42358 2.44858 2.2222 2.69162 2.2222H13.3579C13.6009 2.2222 13.8023 2.42358 13.8023 2.66662V10.6663Z" fill="#303030"/>
</g>
<defs>
<clipPath id="clip0_494_8262">
<rect width="16" height="16" fill="white"/>
</clipPath>
</defs>
</svg>
