<svg width="16" height="16" viewBox="0 0 16 16" fill="none" xmlns="http://www.w3.org/2000/svg">
<path d="M8.88895 1.7778V2.27447C10.9028 2.59419 12.4445 4.33892 12.4445 6.44447V7.37225C12.4445 8.63336 12.8751 9.85836 13.6612 10.8445L14.0751 11.3611C14.2362 11.5611 14.2667 11.8361 14.1556 12.0667C14.0445 12.2972 13.8112 12.4445 13.5556 12.4445H2.4445C2.18811 12.4445 1.95464 12.2972 1.84364 12.0667C1.73261 11.8361 1.76384 11.5611 1.92395 11.3611L2.33811 10.8445C3.12617 9.85836 3.55562 8.63336 3.55562 7.37225V6.44447C3.55562 4.33892 5.09728 2.59419 7.11117 2.27447V1.7778C7.11117 1.28697 7.50839 0.888916 8.00006 0.888916C8.49173 0.888916 8.88895 1.28697 8.88895 1.7778ZM7.77784 3.55558C6.18339 3.55558 4.88895 4.85003 4.88895 6.44447V7.37225C4.88895 8.7028 4.50339 10 3.78645 11.1111H12.2139C11.4973 10 11.1112 8.7028 11.1112 7.37225V6.44447C11.1112 4.85003 9.81673 3.55558 8.22228 3.55558H7.77784ZM9.77784 13.3334C9.77784 13.7806 9.59173 14.2584 9.25839 14.5917C8.92506 14.925 8.44728 15.1111 8.00006 15.1111C7.52784 15.1111 7.07506 14.925 6.74173 14.5917C6.40839 14.2584 6.22228 13.7806 6.22228 13.3334H9.77784Z" fill="#303030"/>
</svg>
