<svg width="18" height="18" viewBox="0 0 18 18" fill="none" xmlns="http://www.w3.org/2000/svg">
<path d="M16.764 8.38059C17.0445 8.61948 17.0807 9.03893 16.8418 9.31949C16.6029 9.60005 16.1834 9.63616 15.9029 9.39727L15.2223 8.81949V14.0001C15.2223 15.2279 14.2279 16.2223 13.0001 16.2223H5.00002C3.77279 16.2223 2.77779 15.2279 2.77779 14.0001V8.81949L2.09806 9.39727C1.81723 9.63616 1.39667 9.60005 1.15833 9.31949C0.920137 9.03893 0.95461 8.61948 1.23536 8.38059L8.56949 2.15833C8.81671 1.94722 9.18338 1.94722 9.43061 2.15833L16.764 8.38059ZM5.00002 14.889H6.33336V10.6667C6.33336 10.0528 6.83059 9.5556 7.44448 9.5556H10.5556C11.1695 9.5556 11.6667 10.0528 11.6667 10.6667V14.889H13.0001C13.4917 14.889 13.889 14.4917 13.889 14.0001V7.68892L9.00005 3.54084L4.11113 7.68892V14.0001C4.11113 14.4917 4.50835 14.889 5.00002 14.889ZM7.66671 14.889H10.3334V10.8889H7.66671V14.889Z" fill="#464646"/>
</svg>
