<svg width="18" height="18" viewBox="0 0 18 18" fill="none" xmlns="http://www.w3.org/2000/svg">
<path fill-rule="evenodd" clip-rule="evenodd" d="M9 1C4.58172 1 1 4.58172 1 9C1 13.4183 4.58172 17 9 17C13.4183 17 17 13.4183 17 9C17 6.87827 16.1571 4.84344 14.6569 3.34315C13.1566 1.84285 11.1217 1 9 1ZM9 15.4C5.46538 15.4 2.6 12.5346 2.6 9C2.6 5.46538 5.46538 2.6 9 2.6C12.5346 2.6 15.4 5.46538 15.4 9C15.4 10.6974 14.7257 12.3253 13.5255 13.5255C12.3253 14.7257 10.6974 15.4 9 15.4ZM11.496 6.192C11.6515 6.03954 11.9005 6.03954 12.056 6.192L12.456 6.616C12.5317 6.6911 12.5743 6.79334 12.5743 6.9C12.5743 7.00665 12.5317 7.10889 12.456 7.184L7.96001 11.68C7.88743 11.7573 7.78608 11.8012 7.68001 11.8012C7.57394 11.8012 7.4726 11.7573 7.40001 11.68L5.52001 9.784C5.44429 9.70889 5.40169 9.60665 5.40169 9.5C5.40169 9.39334 5.44429 9.2911 5.52001 9.216L5.94401 8.792C6.0166 8.71465 6.11794 8.67078 6.22401 8.67078C6.33008 8.67078 6.43143 8.71465 6.50401 8.792L7.70401 9.984L11.496 6.192Z" fill="#3DC06D"/>
</svg>
