<svg width="36" height="36" viewBox="0 0 36 36" fill="none" xmlns="http://www.w3.org/2000/svg">
<path fill-rule="evenodd" clip-rule="evenodd" d="M24.5853 10.866L25.1341 11.4149C25.368 11.6486 25.4996 11.9657 25.4999 12.2965V12.9285C25.5041 13.265 25.3721 13.5889 25.1341 13.8267L23.5959 15.3403C23.5179 15.4191 23.4116 15.4633 23.3008 15.4633C23.1899 15.4633 23.0837 15.4191 23.0056 15.3403L20.6693 12.9701C20.5109 12.8084 20.5109 12.5496 20.6693 12.388L22.1742 10.866C22.4119 10.6279 22.7357 10.4959 23.0721 10.5001H23.704C24.0347 10.5004 24.3517 10.632 24.5853 10.866ZM22.0162 16.9038C22.1747 16.7422 22.1747 16.4834 22.0162 16.3217L19.6383 13.9764C19.5603 13.8977 19.454 13.8534 19.3432 13.8534C19.2323 13.8534 19.1261 13.8977 19.048 13.9764L12.3384 20.6879C12.1762 20.8487 12.0488 21.0412 11.9643 21.2534L10.5342 24.8628C10.4532 25.0502 10.5201 25.2686 10.6922 25.3784C10.81 25.4961 10.9867 25.5321 11.1411 25.4699L14.7495 24.0062C14.9617 23.9216 15.1542 23.7942 15.3149 23.6319L22.0162 16.9038Z" fill="#003FE1"/>
</svg>
