<svg width="18" height="18" viewBox="0 0 18 18" fill="none" xmlns="http://www.w3.org/2000/svg">
<path d="M6.75 8.75C6.33594 8.75 6 9.08437 6 9.5C6 9.91563 6.33594 10.25 6.75 10.25C7.16563 10.25 7.5 9.91563 7.5 9.5C7.5 9.08437 7.16563 8.75 6.75 8.75ZM6.75 11.75C6.33594 11.75 6 12.0859 6 12.5C6 12.9141 6.33594 13.25 6.75 13.25C7.16563 13.25 7.5 12.9156 7.5 12.5C7.5 12.0844 7.16563 11.75 6.75 11.75ZM12.5 12H9C8.725 12 8.5 12.225 8.5 12.5C8.5 12.775 8.725 13 9 13H12.5C12.7764 13 13 12.7764 13 12.5C13 12.2236 12.775 12 12.5 12ZM13.5 3H11.9497C11.6906 1.85875 10.7094 1 9.5 1C8.29062 1 7.28125 1.85875 7.05 3H5.5C4.39531 3 3.5 3.89562 3.5 5V15C3.5 16.1044 4.39531 17 5.5 17H13.5C14.6047 17 15.5 16.1044 15.5 15V5C15.5 3.89562 14.6031 3 13.5 3ZM9.5 2.5C9.91344 2.5 10.25 2.83656 10.25 3.25C10.25 3.66344 9.9125 4 9.5 4C9.0875 4 8.75 3.66344 8.75 3.25C8.75 2.83656 9.0875 2.5 9.5 2.5ZM14 15C14 15.2756 13.7757 15.5 13.5 15.5H5.5C5.22431 15.5 5 15.2756 5 15V5C5 4.72438 5.22431 4.5 5.5 4.5H6.07063C6.02906 4.65937 6 4.825 6 5V5.5C6 5.775 6.22375 6 6.5 6H12.5C12.7761 6 13 5.77613 13 5.5V5C13 4.82628 12.9709 4.66062 12.9292 4.5H13.5C13.7757 4.5 14 4.72438 14 5V15ZM12.5 9H9C8.725 9 8.5 9.225 8.5 9.5C8.5 9.775 8.725 10 9 10H12.5C12.7764 10 13 9.77637 13 9.5C13 9.22363 12.775 9 12.5 9Z" fill="#464646"/>
</svg>
