<svg width="18" height="18" viewBox="0 0 18 18" fill="none" xmlns="http://www.w3.org/2000/svg">
<path d="M13.9156 3.91813L11.5834 1.58563C11.2063 1.21069 10.6969 1 10.1687 1L4.5 1C3.39531 1 2.5 1.89531 2.5 3L2.5002 15C2.5002 16.1044 3.39552 17 4.5002 17H12.5C13.6 17 14.5 16.1 14.5 15V5.33125C14.5 4.80313 14.2906 4.29375 13.9156 3.91813ZM13 15C13 15.2761 12.7761 15.5 12.5 15.5H4.50062C4.22444 15.5 4.00063 15.2761 4.00063 15L4 3.00407C4 2.72794 4.22388 2.50407 4.5 2.50407H9.5V5C9.5 5.55219 9.94781 6 10.5 6H12.9719V15H13ZM5.5 9.75C5.5 10.1656 5.8375 10.5 6.25 10.5H10.75C11.1656 10.5 11.5 10.1656 11.5 9.75C11.5 9.33438 11.1656 9 10.75 9H6.25C5.8375 9 5.5 9.3375 5.5 9.75ZM10.75 12H6.25C5.8375 12 5.5 12.3375 5.5 12.75C5.5 13.1625 5.83594 13.5 6.25 13.5H10.75C11.1641 13.5 11.5 13.1641 11.5 12.75C11.5 12.3359 11.1656 12 10.75 12Z" fill="#464646"/>
</svg>
