<svg width="18" height="18" viewBox="0 0 18 18" fill="none" xmlns="http://www.w3.org/2000/svg">
<path d="M16.4812 8.5H9.5V1.51812C9.5 1.23609 9.69063 1 10 1C13.8656 1 17 4.13438 17 8C17 8.28125 16.7625 8.5 16.4812 8.5ZM8 10H14.9156C15.4937 10 15.9562 10.4906 15.8375 11.0562C15.1219 14.4531 12.1094 17 8.5 17C4.35938 17 1 13.6438 1 9.5C1 5.89062 3.54781 2.87875 6.94375 2.16188C7.50938 2.0425 8 2.50625 8 3.08437V10ZM6.5 3.84094C4.16875 4.66563 2.5 6.8875 2.5 9.5C2.5 12.8125 5.15938 15.5 8.5 15.5C11.1125 15.5 13.3344 13.8313 14.1594 11.5H6.5V3.84094Z" fill="#464646"/>
</svg>
